<svg id="Layer_1" data-name="Layer 1" xmlns="http://www.w3.org/2000/svg" width="58.09mm" height="50.03mm" viewBox="0 0 164.67 141.83"><defs><style>.cls-1{fill:none;stroke:#fff;stroke-miterlimit:10;stroke-width:3px;}</style></defs><title>calender</title><path class="cls-1" d="M153,.53q-.4,0-.81,0H12.5a12,12,0,0,0-12,12V129.33a12,12,0,0,0,12,12H152.17a12,12,0,0,0,12-12V12.5A12,12,0,0,0,153,.53Zm7.85,28.52H4.78V16.29A10.08,10.08,0,0,1,14.86,6.21H150.75a10.08,10.08,0,0,1,10.08,10.08Z"/><rect class="cls-1" x="4.83" y="43.8" width="29.97" height="29.97"/><rect class="cls-1" x="36.5" y="43.8" width="29.97" height="29.97"/><rect class="cls-1" x="99.14" y="43.8" width="29.97" height="29.97"/><rect class="cls-1" x="67.82" y="43.8" width="29.97" height="29.97"/><rect class="cls-1" x="130.86" y="43.8" width="29.97" height="29.97"/><rect class="cls-1" x="4.81" y="75.36" width="29.97" height="29.97"/><rect class="cls-1" x="36.47" y="75.36" width="29.97" height="29.97"/><rect class="cls-1" x="99.11" y="75.36" width="29.97" height="29.97"/><rect class="cls-1" x="67.79" y="75.36" width="29.97" height="29.97"/><rect class="cls-1" x="130.83" y="75.36" width="29.97" height="29.97"/><path class="cls-1" d="M4.78,106.91h30a0,0,0,0,1,0,0v30a0,0,0,0,1,0,0H15.56A10.78,10.78,0,0,1,4.78,126.11V106.91A0,0,0,0,1,4.78,106.91Z"/><rect class="cls-1" x="36.44" y="106.91" width="29.97" height="29.97"/><rect class="cls-1" x="99.09" y="106.91" width="29.97" height="29.97"/><rect class="cls-1" x="67.77" y="106.91" width="29.97" height="29.97"/><path class="cls-1" d="M130.81,106.91h30a0,0,0,0,1,0,0v19.19A10.78,10.78,0,0,1,150,136.89H130.81a0,0,0,0,1,0,0v-30A0,0,0,0,1,130.81,106.91Z"/><rect class="cls-1" x="4.78" y="30.63" width="156.03" height="11.1"/><path class="cls-1" d="M160.83,16.29V29.05H4.78V16.29A10.08,10.08,0,0,1,14.86,6.21H150.75A10.08,10.08,0,0,1,160.83,16.29Z"/></svg>
