<svg xmlns="http://www.w3.org/2000/svg" width="58.09mm" height="55.64mm" viewBox="0 0 164.67 157.72"><defs><style>.cls-1{fill:none;stroke:#fff;stroke-miterlimit:10;stroke-width:3px;}</style></defs><title>info</title><g id="Layer_3" data-name="Layer 3"><path class="cls-1" d="M153,12l-.81,0H12.5a12,12,0,0,0-12,12V140.75a12,12,0,0,0,12,12H152.17a12,12,0,0,0,12-12V23.92A12,12,0,0,0,153,12Z"/><path class="cls-1" d="M68.19,96.34c3.35-9.78,12.19-25.59,17.15-32.56,1.21-1.61,2.14-2,3.22-.8,2,2.14,3.08,7.9-.14,14.6-2.81,5.9-8.44,15-11.25,21.71-3.22,7.77-3,13,1.34,12.73,6-.27,13.4-9.11,17.42-18.36.67-1.2,1.6-1.07,2.14,0,1.07,2.15.67,5-.94,8.31-4,8.31-12.46,13.94-20,13.94C67,115.91,64.44,107.33,68.19,96.34Zm29.88-35c-1.74,1.88-5.49,1.47-7.5-2a8.31,8.31,0,0,1,.67-9.92c2.14-2.27,6-.67,7.77,3A8.1,8.1,0,0,1,98.07,61.37Z"/><circle class="cls-1" cx="81.39" cy="82.33" r="65.07"/></g></svg>
