<svg xmlns="http://www.w3.org/2000/svg" width="179.95mm" height="197.51mm" viewBox="0 0 510.09 559.88"><defs><style>.cls-1{fill:#fff;}</style></defs><title>MTA_Logo</title><g id="Layer_11" data-name="Layer 11"><rect x="-725.01" y="-214.48" width="1920" height="1146.48"/><g id="LOGO"><g id="Circle"><path class="cls-1" d="M177.71,559.08a275.49,275.49,0,0,1-61.19-29.21,245.34,245.34,0,0,1-51.45-44.23,248.62,248.62,0,0,1-37.16-56.27A276.39,276.39,0,0,1,6.5,366.06a308.34,308.34,0,0,1-6.49-66,320.7,320.7,0,0,1,7.32-65.57,296.18,296.18,0,0,1,20.9-62.4,238.56,238.56,0,0,1,35.46-55.37,188.12,188.12,0,0,1,23.66-23A164.61,164.61,0,0,1,100.67,84c1.15-.76,2.32-1.49,3.48-2.23l3.53-2.13c2.4-1.38,4.78-2.71,7.16-4a302.11,302.11,0,0,1,60-25.11,281.78,281.78,0,0,1,31.69-7.41,264.12,264.12,0,0,1,32.35-3.48,235.34,235.34,0,0,1,32.52.75,218.66,218.66,0,0,1,32.07,5.29,203.9,203.9,0,0,1,86,43.85,213.13,213.13,0,0,1,22.77,23A234.22,234.22,0,0,1,446.63,167a303.81,303.81,0,0,1,20.24,61.09,302.65,302.65,0,0,0-21.2-60.64,233.48,233.48,0,0,0-35.05-53.54,211.77,211.77,0,0,0-22.88-22.35,205.07,205.07,0,0,0-26.1-18.42A202.92,202.92,0,0,0,302.5,49.81,215,215,0,0,0,271,45.14a230.16,230.16,0,0,0-31.84-.21,258.28,258.28,0,0,0-31.6,3.92,277.61,277.61,0,0,0-30.87,7.76,294.82,294.82,0,0,0-58.21,25.51C100.08,92.43,84.36,106.71,71.25,123a227.6,227.6,0,0,0-31.72,54.08,283.32,283.32,0,0,0-17.6,60.27c-7.27,41.27-6.1,84,4,124.21a255.56,255.56,0,0,0,22,57.65,225.41,225.41,0,0,0,35.58,49.58A219.12,219.12,0,0,0,131,506.5a246.5,246.5,0,0,0,55.79,24,15,15,0,1,1-8.48,28.78l-.5-.15Z"/></g><g id="Circle-2" data-name="Circle"><path class="cls-1" d="M300.5.59a272.08,272.08,0,0,1,60,22.31A255.68,255.68,0,0,1,413.22,59a266.17,266.17,0,0,1,42,47.38,293.09,293.09,0,0,1,30,55A328.94,328.94,0,0,1,510.05,282a315,315,0,0,1-4.95,61.25A266,266,0,0,1,487.4,402,205.13,205.13,0,0,1,455,454.15q-5,5.82-10.58,11.19c-3.66,3.57-7.6,7-11.49,10.17Q421.36,485.18,409,494c-8.24,5.8-16.74,11.24-25.5,16.23a265.91,265.91,0,0,1-27.11,13.46,217.32,217.32,0,0,1-58.26,15.93A201,201,0,0,1,238,537.93a226,226,0,0,1-29.2-7.25,263.41,263.41,0,0,1-28-10.86,327.59,327.59,0,0,1-51.73-29.93,460.7,460.7,0,0,1-46.38-37.51,461.13,461.13,0,0,0,47.24,36.25A326.69,326.69,0,0,0,182,517a259.74,259.74,0,0,0,27.86,10,221.35,221.35,0,0,0,28.82,6.38,195.52,195.52,0,0,0,58.61.11,210.26,210.26,0,0,0,56-16.87,258,258,0,0,0,25.94-13.72c8.38-5.06,16.5-10.55,24.37-16.4S419.1,474.45,426.47,468a153.86,153.86,0,0,0,19.68-21.09,191.42,191.42,0,0,0,27.7-50.38,249.56,249.56,0,0,0,13.66-56,295.44,295.44,0,0,0,1.58-57.64A304.61,304.61,0,0,0,460.25,172.5c-16.38-34.19-39.72-64.74-68.73-87.76A220.93,220.93,0,0,0,344.46,56,233.59,233.59,0,0,0,292,39.67,20,20,0,1,1,299.39.35c.32.06.65.13,1,.21Z"/></g><g id="MTA"><path class="cls-1" d="M247.3,398.36a4.19,4.19,0,0,1-4,4.24l-3.85.14a4.19,4.19,0,0,1-4.35-4.18V279c0-41-.38-83.37-.54-98.32a.61.61,0,0,0-1.2-.11c-5.94,28.73-33.5,161.81-43.93,207.18-.51,2.21-1,4.21-1.39,6-.49,2-.91,3.78-1.27,5.17a3.13,3.13,0,0,1-5.67,1,2.62,2.62,0,0,1-.33-.82c-11.39-61.3-33.55-181.62-41.23-223.36a1.21,1.21,0,0,0-2.39.24c.53,30.83.8,77.47.8,113.13V398.72a4.18,4.18,0,0,1-4.19,4.19h-3.16a4.19,4.19,0,0,1-4.19-4.19V159.18a4.18,4.18,0,0,1,4.18-4.18h12.37a4.18,4.18,0,0,1,4.11,3.39c13.48,70.55,28.62,150.27,37,197.29a1.88,1.88,0,0,0,3.69.05c8.51-42.53,23.61-113,37.09-180.44a4.17,4.17,0,0,1,4.09-3.37h11.19a4.18,4.18,0,0,1,4.18,4.13Z"/><path class="cls-1" d="M261.25,173.2h0a5.65,5.65,0,0,1,5.59,5.64v218a5.64,5.64,0,0,1-5.65,5.64h0a5.64,5.64,0,0,1-5.64-5.64v-218A5.64,5.64,0,0,1,261.25,173.2Z"/><path class="cls-1" d="M154.74,166.76h0A12.45,12.45,0,0,0,167,176.94l77.22-.06h0a5.45,5.45,0,0,0-5.41-5.44l-69-.79c-5.92-.05-6.28-9-.36-9.31.17,0,11,.25,11.22.25,0,0,133.5.67,135.12,1,2.34.51,7.62-.13,8.79.88,2.92,2.53.7,7.47-1.91,7.45l-63,.23c-2.37,0-3.8,1.57-3.91,4-.08,1.77-.21,3.72-.21,3.72l11.29-1.4,50.55.48a13.76,13.76,0,0,0,13.32-9.85l.81-2.74a7.2,7.2,0,0,0-6.84-9.26L164.86,154.7A10.2,10.2,0,0,0,154.74,166.76Z"/><path class="cls-1" d="M343.26,187a28.24,28.24,0,0,1-1.86,3.21c-1.26,1.69-2.69,3.25-4,4.92a12.44,12.44,0,0,0-1,1.84,20.75,20.75,0,0,1-1.86,3.49c-2.8,3.45-4.87,7.36-7.31,11-1.88,2.85-3.83,5.66-5.75,8.47a1,1,0,0,0-.15.33l-5.07,18.53L314.6,245a1.07,1.07,0,0,0,1.91.88l2.7-3.94c.36-.52.78-1,1.16-1.48a1.05,1.05,0,0,0,.17-.29,12.73,12.73,0,0,1,.66-1.68,1.07,1.07,0,0,1,1.55-.34,3.24,3.24,0,0,0,.74.43l1,.4c.32.14.63.27.94.42l.76.37.36.19.65.35.07,0c2.13-7.1,4.21-13.83,6.17-20.15q2.19-7,4.17-13.33,1.74-5.53,3.29-10.55c.16-.51.31-1,.47-1.51q1.59-5.19,3-9.79A20.3,20.3,0,0,0,343.26,187Zm44.52,129.59-.7-4.16-.36-2.06-.81-4.78-2.35-13.85-1.32-7.79h0l-16.41-96.75-.94-5.5-3.61-21.31h0a5.35,5.35,0,0,0-5.27-4.45h-8.6a11.08,11.08,0,0,0-10.68,8.15l-12,43.91-3.31,12.12-5.12,18.71-3.38,12.36L283.41,359l-1.14,4.18-.29,1.08-3.88,14.18-4.9,17.9a5.06,5.06,0,0,0,4,6.42c6.66,1.17,8.25-7.24,8.44-7.9l2.3-8.11,4.22-14.87,1.31-4.6,17.64-62.1a1.06,1.06,0,0,1,1-.77l55.23-.06h5.8l2.11,12.54,1.86,11.1,11.41,67.78a7.72,7.72,0,0,0,6.49,6.35l.22,0a5.39,5.39,0,0,0,5.64-6.29Zm-74.2-21.92a1.07,1.07,0,0,1-1-1.33c4.42-17.6,9-33.79,13.33-48.43.46-1.53.91-3.05,1.36-4.54,2.13-7.1,21.09-67.55,21.12-67.4.14.57,3.24,12.94,3.24,12.94l1,4.85h0c3.44,16.77,8.48,41.55,15.37,80.84q.57,3.27,1.16,6.66,1.29,7.44,2.66,15.54a1.08,1.08,0,0,1-1.06,1.25ZM343.26,187a28.24,28.24,0,0,1-1.86,3.21c-1.26,1.69-2.69,3.25-4,4.92a12.44,12.44,0,0,0-1,1.84,20.75,20.75,0,0,1-1.86,3.49c-2.8,3.45-4.87,7.36-7.31,11-1.88,2.85-3.83,5.66-5.75,8.47a1,1,0,0,0-.15.33l-5.07,18.53L314.6,245a1.07,1.07,0,0,0,1.91.88l2.7-3.94c.36-.52.78-1,1.16-1.48a1.05,1.05,0,0,0,.17-.29,12.73,12.73,0,0,1,.66-1.68,1.07,1.07,0,0,1,1.55-.34,3.24,3.24,0,0,0,.74.43l1,.4c.32.14.63.27.94.42l.76.37.36.19.65.35.07,0c2.13-7.1,4.21-13.83,6.17-20.15q2.19-7,4.17-13.33,1.74-5.53,3.29-10.55c.16-.51.31-1,.47-1.51q1.59-5.19,3-9.79A20.3,20.3,0,0,0,343.26,187Z"/></g></g></g></svg>
