<svg xmlns="http://www.w3.org/2000/svg" width="148.14mm" height="37.96mm" viewBox="0 0 419.92 107.6"><defs><style>.cls-1{fill:#fff;}</style></defs><title>ourMetro</title><g id="Layer_11" data-name="Layer 11"><rect x="-765.26" y="-65.12" width="1920" height="1146.48"/><path class="cls-1" d="M59.49,17.3a30.83,30.83,0,0,1,9.38,22.62,30.83,30.83,0,0,1-9.38,22.62,30.81,30.81,0,0,1-22.61,9.37,30.82,30.82,0,0,1-22.62-9.37A30.83,30.83,0,0,1,4.88,39.92,30.83,30.83,0,0,1,14.26,17.3,30.82,30.82,0,0,1,36.88,7.93,30.81,30.81,0,0,1,59.49,17.3ZM36.88,16.09a23,23,0,0,0-16.86,7,22.93,22.93,0,0,0-7,16.85A23,23,0,0,0,20,56.8a23,23,0,0,0,16.84,7,22.94,22.94,0,0,0,16.85-7,23,23,0,0,0,7-16.88,22.93,22.93,0,0,0-7-16.85A23,23,0,0,0,36.88,16.09Z"/><path class="cls-1" d="M96.68,71.8q-7.62,0-12.27-4.65a16.2,16.2,0,0,1-4.76-11.64V31.05h8.12V55.2a8.09,8.09,0,0,0,2.54,6,8.64,8.64,0,0,0,6.33,2.5,8.37,8.37,0,0,0,6-2.48,8,8,0,0,0,2.55-6V31.05h8.09V55.51A16,16,0,0,1,96.68,71.8Z"/><path class="cls-1" d="M133.12,36.48q4.55-6.12,11.14-6.44v8.4a10.24,10.24,0,0,0-7,2.85,13.23,13.23,0,0,0-4.11,9.3V71.25H125V31.05h8.08Z"/><path class="cls-1" d="M189.06,8.75l20.28,35,20.19-35h7.38v62.5h-8.08V26.09L209.34,59.84,189.77,26.09V71.25h-8.09V8.75Z"/><path class="cls-1" d="M263.05,62.15q2,1.8,7.38,1.8a13.53,13.53,0,0,0,9.88-4.07c.34-.36,1-1.17,2.07-2.42l8.09,2.89a50.49,50.49,0,0,1-4.3,5.43A22.25,22.25,0,0,1,248.2,50a21.44,21.44,0,0,1,6.53-15.74,22.27,22.27,0,0,1,29.53-1.76c.65.55,1.29,1.13,1.91,1.76.26.26,1,1.08,2.23,2.46l-4.06,4.1Zm13.51-25c-.91-.7-2.95-1.06-6.13-1.06A14,14,0,0,0,256.52,50c0,3.15.36,5.19,1.06,6.13Z"/><path class="cls-1" d="M304.73,31.05V16h8.08V31.05H320v8.09h-7.23V71.25h-8.08V39.14H297.5V31.05Z"/><path class="cls-1" d="M337.54,36.48q4.53-6.12,11.13-6.44v8.4a10.26,10.26,0,0,0-7,2.85,13.18,13.18,0,0,0-4.1,9.3V71.25h-8.09V31.05h8.09Z"/><path class="cls-1" d="M375.62,27.77a21.41,21.41,0,0,1,15.73,6.53A21.49,21.49,0,0,1,397.85,50a21.49,21.49,0,0,1-6.5,15.74,22.2,22.2,0,0,1-31.43,0A21.43,21.43,0,0,1,353.4,50a21.43,21.43,0,0,1,6.52-15.74A21.4,21.4,0,0,1,375.62,27.77ZM365.76,40.2a13.91,13.91,0,0,0,0,19.68A13.95,13.95,0,0,0,389.57,50a13.93,13.93,0,0,0-23.81-9.84Z"/></g></svg>
