<svg xmlns="http://www.w3.org/2000/svg" width="58.28mm" height="50.03mm" viewBox="0 0 165.22 141.83"><defs><style>.cls-1{fill:none;stroke:#fff;stroke-miterlimit:10;stroke-width:3px;}</style></defs><title>pics</title><g id="Layer_2" data-name="Layer 2"><path class="cls-1" d="M153,.53q-.4,0-.81,0H12.5a12,12,0,0,0-12,12V129.33a12,12,0,0,0,12,12H152.17a12,12,0,0,0,12-12V12.5A12,12,0,0,0,153,.53Z"/><path class="cls-1" d="M66.39,16A26,26,0,0,1,79.85,29"/><path class="cls-1" d="M73.12,15.34a15,15,0,0,1,7.76,7.48"/><path class="cls-1" d="M77,42.42a26,26,0,0,1-26,26"/><path class="cls-1" d="M31,12.9a26,26,0,0,0-13.46,13"/><path class="cls-1" d="M24.25,12.27a15.06,15.06,0,0,0-7.76,7.48"/><path class="cls-1" d="M2.52,92.41c12.47-11.94,22.32-22,34.8-34l34.23,34,45.17-46.3,46.62,47.15"/><path class="cls-1" d="M33.89,61.88c-8.5-8.39-9.94-23-3.2-32.86S51.61,15.2,62.46,20.18,79.56,38.53,76.36,50,60.88,69.79,49,68.34"/><path class="cls-1" d="M94.74,68.43c2.91,2.92,7.4,3.37,11.51,3.66l1.45.09,8.22.57,9.49-6.92c1.2,2.94,3,6,6,7s7.05-1.74,6.08-4.77"/><path class="cls-1" d="M20.2,75.66l5.23,9.55,8-9.12L43.83,85,52,75.75"/></g></svg>
